{
    "asset": {
        "generator": "SOLIDWORKSGLTF",
        "version": "2.0"
    },
    "scene": 0,
    "scenes": [
        {
            "name": "PRIVACY PANEL BRACKET 2",
            "nodes": [
                0,
                1
            ]
        }
    ],
    "nodes": [
        {
            "matrix": [
                0.6815718310955325,
                0.0,
                -0.731751213908855,
                0.0,
                -0.35760762096748,
                0.8724512810421818,
                -0.3330849015398853,
                0.0,
                0.6384172839789521,
                0.48870109699882597,
                0.594638217161563,
                0.0,
                0.34360423582725574,
                0.3637995209548606,
                0.3841130710008655,
                1.0
            ],
            "camera": 0,
            "name": "current camera"
        },
        {
            "mesh": 0,
            "name": "PRIVACY PANEL BRACKET_25mm THKMirror"
        }
    ],
    "cameras": [
        {
            "type": "orthographic",
            "orthographic": {
                "xmag": 0.14876726019529007,
                "ymag": 0.11495651924181506,
                "zfar": 0.7803909926251283,
                "znear": 0.534601448502519
            }
        }
    ],
    "meshes": [
        {
            "primitives": [
                {
                    "attributes": {
                        "POSITION": 1,
                        "NORMAL": 2
                    },
                    "indices": 0,
                    "material": 0,
                    "mode": 4
                }
            ]
        }
    ],
    "accessors": [
        {
            "bufferView": 0,
            "byteOffset": 0,
            "componentType": 5125,
            "count": 2292,
            "type": "SCALAR",
            "min": [
                0
            ],
            "max": [
                1055
            ]
        },
        {
            "bufferView": 1,
            "byteOffset": 0,
            "componentType": 5126,
            "count": 1056,
            "type": "VEC3",
            "min": [
                -0.10000000149011612,
                -1.1188966420050406e-16,
                0.0
            ],
            "max": [
                1.117934994912111e-16,
                0.125,
                0.03500000014901161
            ]
        },
        {
            "bufferView": 2,
            "byteOffset": 0,
            "componentType": 5126,
            "count": 1056,
            "type": "VEC3",
            "min": [
                -1.0,
                -1.0,
                -1.0
            ],
            "max": [
                1.0,
                1.0,
                1.0
            ]
        }
    ],
    "materials": [
        {
            "name": "defaultplastic",
            "pbrMetallicRoughness": {
                "baseColorFactor": [
                    0.5989418101001601,
                    0.6455552910764322,
                    0.8591735777059335,
                    1.0
                ],
                "metallicFactor": 0.0,
                "roughnessFactor": 0.16999999880790712
            }
        }
    ],
    "bufferViews": [
        {
            "buffer": 0,
            "byteOffset": 0,
            "byteLength": 9168,
            "target": 34963
        },
        {
            "buffer": 0,
            "byteOffset": 9168,
            "byteLength": 12672,
            "byteStride": 12,
            "target": 34962
        },
        {
            "buffer": 0,
            "byteOffset": 21840,
            "byteLength": 12672,
            "byteStride": 12,
            "target": 34962
        }
    ],
    "buffers": [
        {
            "uri": "PRIVACY PANEL BRACKET_25mm THKMirror.bin",
            "byteLength": 34512
        }
    ]
}
