{
    "asset": {
        "generator": "SOLIDWORKSGLTF",
        "version": "2.0"
    },
    "scene": 0,
    "scenes": [
        {
            "name": "HORIZONTAL CROSS MEMBER ASSEMBLY 1800L",
            "nodes": [
                0,
                1
            ]
        }
    ],
    "nodes": [
        {
            "matrix": [
                0.7503657724987742,
                -2.7755575615628914e-17,
                -0.6610228494252811,
                0.0,
                -0.38109163232596666,
                0.8170843829659913,
                -0.4325994439249958,
                0.0,
                0.5401114470490772,
                0.5765180926155616,
                0.6131121542209603,
                0.0,
                1.8711825326685372,
                1.9973110930411044,
                2.124088944629937,
                1.0
            ],
            "camera": 0,
            "name": "current camera"
        },
        {
            "children": [
                2,
                3,
                4,
                5,
                6,
                7
            ],
            "name": "HORIZONTAL CROSS MEMBER"
        },
        {
            "rotation": [
                -2.1593970760192454e-16,
                0.7071068286895752,
                0.0,
                0.7071068286895752
            ],
            "translation": [
                0.17499999701976776,
                0.014000000432133675,
                -9.020562075079397e-17
            ],
            "mesh": 0,
            "name": "CONTROLLER MOUNTING BRACKET-2"
        },
        {
            "rotation": [
                0.0,
                1.0,
                0.0,
                -3.491481243527014e-15
            ],
            "translation": [
                -4.356201773967201e-16,
                -1.6692736371891613e-16,
                -0.05925000086426735
            ],
            "mesh": 1,
            "name": "HORIZONTAL CROSS MEMBER PIPE-2"
        },
        {
            "rotation": [
                -3.1401851283233704e-16,
                0.7071068286895752,
                -3.925231410404213e-17,
                0.7071068286895752
            ],
            "translation": [
                -0.22949999570846558,
                0.019999999552965164,
                7.423365316873411e-18
            ],
            "mesh": 2,
            "name": "TOP SUPPORT BRACKET-2"
        },
        {
            "rotation": [
                4.9377006389877964e-15,
                0.7071068286895752,
                -4.9377006389877964e-15,
                0.7071068286895752
            ],
            "translation": [
                0.5795000195503235,
                0.019999999552965164,
                -1.971585016489921e-15
            ],
            "mesh": 3,
            "name": "TOP SUPPORT BRACKET-1"
        },
        {
            "translation": [
                0.0,
                0.0,
                0.05925000086426735
            ],
            "mesh": 4,
            "name": "HORIZONTAL CROSS MEMBER PIPE-1"
        },
        {
            "rotation": [
                -4.9377006389877964e-15,
                0.7071068286895752,
                4.9377006389877964e-15,
                0.7071068286895752
            ],
            "translation": [
                -0.5795000195503235,
                0.019999999552965164,
                -2.0455729209161106e-15
            ],
            "mesh": 3
        }
    ],
    "cameras": [
        {
            "type": "orthographic",
            "orthographic": {
                "xmag": 0.7627528579897466,
                "ymag": 0.5893999357193496,
                "zfar": 5.114746367491557,
                "znear": 2.639283569851486
            }
        }
    ],
    "meshes": [
        {
            "primitives": [
                {
                    "attributes": {
                        "POSITION": 1,
                        "NORMAL": 2
                    },
                    "indices": 0,
                    "material": 0,
                    "mode": 4
                }
            ]
        },
        {
            "primitives": [
                {
                    "attributes": {
                        "POSITION": 4,
                        "NORMAL": 5
                    },
                    "indices": 3,
                    "material": 1,
                    "mode": 4
                }
            ]
        },
        {
            "primitives": [
                {
                    "attributes": {
                        "POSITION": 7,
                        "NORMAL": 8
                    },
                    "indices": 6,
                    "material": 0,
                    "mode": 4
                }
            ]
        },
        {
            "primitives": [
                {
                    "attributes": {
                        "POSITION": 10,
                        "NORMAL": 11
                    },
                    "indices": 9,
                    "material": 0,
                    "mode": 4
                }
            ]
        },
        {
            "primitives": [
                {
                    "attributes": {
                        "POSITION": 13,
                        "NORMAL": 14
                    },
                    "indices": 12,
                    "material": 1,
                    "mode": 4
                }
            ]
        }
    ],
    "accessors": [
        {
            "bufferView": 0,
            "byteOffset": 0,
            "componentType": 5125,
            "count": 756,
            "type": "SCALAR",
            "min": [
                0
            ],
            "max": [
                363
            ]
        },
        {
            "bufferView": 1,
            "byteOffset": 0,
            "componentType": 5126,
            "count": 364,
            "type": "VEC3",
            "min": [
                -0.04924999922513962,
                -0.0020000000949949026,
                -0.03500000014901161
            ],
            "max": [
                0.04924999922513962,
                0.006000000052154064,
                0.03500000014901161
            ]
        },
        {
            "bufferView": 2,
            "byteOffset": 0,
            "componentType": 5126,
            "count": 364,
            "type": "VEC3",
            "min": [
                -1.0,
                -1.0,
                -1.0
            ],
            "max": [
                1.0,
                1.0,
                1.0
            ]
        },
        {
            "bufferView": 3,
            "byteOffset": 0,
            "componentType": 5125,
            "count": 4572,
            "type": "SCALAR",
            "min": [
                0
            ],
            "max": [
                2023
            ]
        },
        {
            "bufferView": 4,
            "byteOffset": 0,
            "componentType": 5126,
            "count": 2024,
            "type": "VEC3",
            "min": [
                -0.8220000267028809,
                -0.019999999552965164,
                -0.009999999776482582
            ],
            "max": [
                0.8220000267028809,
                0.019999999552965164,
                0.009999999776482582
            ]
        },
        {
            "bufferView": 5,
            "byteOffset": 0,
            "componentType": 5126,
            "count": 2024,
            "type": "VEC3",
            "min": [
                -1.0,
                -1.0,
                -1.0
            ],
            "max": [
                1.0,
                1.0,
                1.0
            ]
        },
        {
            "bufferView": 6,
            "byteOffset": 0,
            "componentType": 5125,
            "count": 672,
            "type": "SCALAR",
            "min": [
                0
            ],
            "max": [
                301
            ]
        },
        {
            "bufferView": 7,
            "byteOffset": 0,
            "componentType": 5126,
            "count": 302,
            "type": "VEC3",
            "min": [
                -0.04924999922513962,
                -0.019999999552965164,
                -0.012500000186264515
            ],
            "max": [
                0.04924999922513962,
                0.0,
                0.012500000186264515
            ]
        },
        {
            "bufferView": 8,
            "byteOffset": 0,
            "componentType": 5126,
            "count": 302,
            "type": "VEC3",
            "min": [
                -1.0,
                -1.0,
                -1.0
            ],
            "max": [
                1.0,
                1.0,
                1.0
            ]
        },
        {
            "bufferView": 9,
            "byteOffset": 0,
            "componentType": 5125,
            "count": 672,
            "type": "SCALAR",
            "min": [
                0
            ],
            "max": [
                301
            ]
        },
        {
            "bufferView": 10,
            "byteOffset": 0,
            "componentType": 5126,
            "count": 302,
            "type": "VEC3",
            "min": [
                -0.04924999922513962,
                -0.019999999552965164,
                -0.012500000186264515
            ],
            "max": [
                0.04924999922513962,
                0.0,
                0.012500000186264515
            ]
        },
        {
            "bufferView": 11,
            "byteOffset": 0,
            "componentType": 5126,
            "count": 302,
            "type": "VEC3",
            "min": [
                -1.0,
                -1.0,
                -1.0
            ],
            "max": [
                1.0,
                1.0,
                1.0
            ]
        },
        {
            "bufferView": 12,
            "byteOffset": 0,
            "componentType": 5125,
            "count": 4572,
            "type": "SCALAR",
            "min": [
                0
            ],
            "max": [
                2023
            ]
        },
        {
            "bufferView": 13,
            "byteOffset": 0,
            "componentType": 5126,
            "count": 2024,
            "type": "VEC3",
            "min": [
                -0.8220000267028809,
                -0.019999999552965164,
                -0.009999999776482582
            ],
            "max": [
                0.8220000267028809,
                0.019999999552965164,
                0.009999999776482582
            ]
        },
        {
            "bufferView": 14,
            "byteOffset": 0,
            "componentType": 5126,
            "count": 2024,
            "type": "VEC3",
            "min": [
                -1.0,
                -1.0,
                -1.0
            ],
            "max": [
                1.0,
                1.0,
                1.0
            ]
        }
    ],
    "materials": [
        {
            "name": "mattesteel",
            "pbrMetallicRoughness": {
                "baseColorFactor": [
                    1.0,
                    1.0,
                    1.0,
                    1.0
                ],
                "metallicFactor": 1.0,
                "roughnessFactor": 0.5
            }
        },
        {
            "name": "defaultplastic",
            "pbrMetallicRoughness": {
                "baseColorFactor": [
                    1.0,
                    1.0,
                    1.0,
                    1.0
                ],
                "metallicFactor": 0.0,
                "roughnessFactor": 0.16999999880790712
            }
        }
    ],
    "bufferViews": [
        {
            "buffer": 0,
            "byteOffset": 0,
            "byteLength": 3024,
            "target": 34963
        },
        {
            "buffer": 0,
            "byteOffset": 3024,
            "byteLength": 4368,
            "byteStride": 12,
            "target": 34962
        },
        {
            "buffer": 0,
            "byteOffset": 7392,
            "byteLength": 4368,
            "byteStride": 12,
            "target": 34962
        },
        {
            "buffer": 1,
            "byteOffset": 0,
            "byteLength": 18288,
            "target": 34963
        },
        {
            "buffer": 1,
            "byteOffset": 18288,
            "byteLength": 24288,
            "byteStride": 12,
            "target": 34962
        },
        {
            "buffer": 1,
            "byteOffset": 42576,
            "byteLength": 24288,
            "byteStride": 12,
            "target": 34962
        },
        {
            "buffer": 2,
            "byteOffset": 0,
            "byteLength": 2688,
            "target": 34963
        },
        {
            "buffer": 2,
            "byteOffset": 2688,
            "byteLength": 3624,
            "byteStride": 12,
            "target": 34962
        },
        {
            "buffer": 2,
            "byteOffset": 6312,
            "byteLength": 3624,
            "byteStride": 12,
            "target": 34962
        },
        {
            "buffer": 3,
            "byteOffset": 0,
            "byteLength": 2688,
            "target": 34963
        },
        {
            "buffer": 3,
            "byteOffset": 2688,
            "byteLength": 3624,
            "byteStride": 12,
            "target": 34962
        },
        {
            "buffer": 3,
            "byteOffset": 6312,
            "byteLength": 3624,
            "byteStride": 12,
            "target": 34962
        },
        {
            "buffer": 4,
            "byteOffset": 0,
            "byteLength": 18288,
            "target": 34963
        },
        {
            "buffer": 4,
            "byteOffset": 18288,
            "byteLength": 24288,
            "byteStride": 12,
            "target": 34962
        },
        {
            "buffer": 4,
            "byteOffset": 42576,
            "byteLength": 24288,
            "byteStride": 12,
            "target": 34962
        }
    ],
    "buffers": [
        {
            "uri": "0-1-CONTROLLER MOUNTING BRACKET-2.bin",
            "byteLength": 11760
        },
        {
            "uri": "0-2-HORIZONTAL CROSS MEMBER PIPE-2.bin",
            "byteLength": 66864
        },
        {
            "uri": "0-3-TOP SUPPORT BRACKET-2.bin",
            "byteLength": 9936
        },
        {
            "uri": "0-4-TOP SUPPORT BRACKET-1.bin",
            "byteLength": 9936
        },
        {
            "uri": "0-5-HORIZONTAL CROSS MEMBER PIPE-1.bin",
            "byteLength": 66864
        }
    ]
}
