{
    "asset": {
        "generator": "SOLIDWORKSGLTF",
        "version": "2.0"
    },
    "scene": 0,
    "scenes": [
        {
            "name": "Default",
            "nodes": [
                0,
                1
            ]
        }
    ],
    "nodes": [
        {
            "matrix": [
                0.9412339031719088,
                0.07733729363271966,
                -0.3287821201545794,
                0.0,
                -0.3297697851281949,
                5.342948306008566e-16,
                -0.9440613797929159,
                0.0,
                -0.07301115213635502,
                0.997004986453712,
                0.025503502703658594,
                0.0,
                -0.04026987170883066,
                1.103617796104306,
                -0.0044304796509544875,
                1.0
            ],
            "camera": 0,
            "name": "current camera"
        },
        {
            "children": [
                2,
                3
            ],
            "name": "VERTCAL DUCT ASSEMLY WITH EXTRUSION_JIECHANG"
        },
        {
            "rotation": [
                3.6085969289585096e-17,
                1.0,
                0.0,
                2.2731730561235052e-17
            ],
            "translation": [
                19.747718811035156,
                -0.021709876134991646,
                -1.5775301456451416
            ],
            "mesh": 0,
            "name": "GN-0201_JIECHANG-1"
        },
        {
            "translation": [
                0.04775753989815712,
                -0.037106387317180634,
                -0.02959160879254341
            ],
            "children": [
                4,
                5,
                6
            ],
            "name": "VERTICAL DUCT WELD ASSEMBLY_JIECHANG"
        },
        {
            "translation": [
                -0.005619127303361893,
                0.015396512113511562,
                -0.009774882346391678
            ],
            "mesh": 1,
            "name": "VERTICAL DUCT BODY BEND AND DEVELOP_JIECHANG-1"
        },
        {
            "translation": [
                -0.005619127303361893,
                0.08539651334285736,
                0.026925116777420044
            ],
            "mesh": 2,
            "name": "SW-OF-LN-0170-1"
        },
        {
            "rotation": [
                0.0,
                0.0,
                1.0,
                0.0
            ],
            "translation": [
                -0.005619127303361893,
                -0.05460348725318909,
                0.026925116777420044
            ],
            "mesh": 3,
            "name": "SW-OF-LN-0170-2"
        }
    ],
    "cameras": [
        {
            "type": "orthographic",
            "orthographic": {
                "xmag": 0.27413189419110173,
                "ymag": 0.21182919096585134,
                "zfar": 1.4395377838633991,
                "znear": 0.9732933603042537
            }
        }
    ],
    "meshes": [
        {
            "primitives": [
                {
                    "attributes": {
                        "POSITION": 1,
                        "NORMAL": 2
                    },
                    "indices": 0,
                    "material": 0,
                    "mode": 4
                }
            ]
        },
        {
            "primitives": [
                {
                    "attributes": {
                        "POSITION": 4,
                        "NORMAL": 5
                    },
                    "indices": 3,
                    "material": 1,
                    "mode": 4
                }
            ]
        },
        {
            "primitives": [
                {
                    "attributes": {
                        "POSITION": 7,
                        "NORMAL": 8
                    },
                    "indices": 6,
                    "material": 1,
                    "mode": 4
                }
            ]
        },
        {
            "primitives": [
                {
                    "attributes": {
                        "POSITION": 10,
                        "NORMAL": 11
                    },
                    "indices": 9,
                    "material": 1,
                    "mode": 4
                }
            ]
        }
    ],
    "accessors": [
        {
            "bufferView": 0,
            "byteOffset": 0,
            "componentType": 5125,
            "count": 1488,
            "type": "SCALAR",
            "min": [
                0
            ],
            "max": [
                739
            ]
        },
        {
            "bufferView": 1,
            "byteOffset": 0,
            "componentType": 5126,
            "count": 740,
            "type": "VEC3",
            "min": [
                19.662078857421875,
                -0.12999999523162842,
                -1.593963623046875
            ],
            "max": [
                19.74907875061035,
                0.12999999523162842,
                -1.5766609907150269
            ]
        },
        {
            "bufferView": 2,
            "byteOffset": 0,
            "componentType": 5126,
            "count": 740,
            "type": "VEC3",
            "min": [
                -1.0,
                -1.0,
                -1.0
            ],
            "max": [
                1.0,
                1.0,
                1.0
            ]
        },
        {
            "bufferView": 3,
            "byteOffset": 0,
            "componentType": 5125,
            "count": 2964,
            "type": "SCALAR",
            "min": [
                0
            ],
            "max": [
                1367
            ]
        },
        {
            "bufferView": 4,
            "byteOffset": 0,
            "componentType": 5126,
            "count": 1368,
            "type": "VEC3",
            "min": [
                -0.06920000165700912,
                -0.12999999523162842,
                -0.04349999874830246
            ],
            "max": [
                0.06920000165700912,
                0.12999999523162842,
                0.04349999874830246
            ]
        },
        {
            "bufferView": 5,
            "byteOffset": 0,
            "componentType": 5126,
            "count": 1368,
            "type": "VEC3",
            "min": [
                -1.0,
                -1.0,
                -1.0
            ],
            "max": [
                1.0,
                1.0,
                1.0
            ]
        },
        {
            "bufferView": 6,
            "byteOffset": 0,
            "componentType": 5125,
            "count": 660,
            "type": "SCALAR",
            "min": [
                0
            ],
            "max": [
                323
            ]
        },
        {
            "bufferView": 7,
            "byteOffset": 0,
            "componentType": 5126,
            "count": 324,
            "type": "VEC3",
            "min": [
                -0.04899999871850014,
                -0.009999999776482582,
                -0.014999999664723873
            ],
            "max": [
                0.04899999871850014,
                0.009999999776482582,
                0.0
            ]
        },
        {
            "bufferView": 8,
            "byteOffset": 0,
            "componentType": 5126,
            "count": 324,
            "type": "VEC3",
            "min": [
                -1.0,
                -1.0,
                -1.0
            ],
            "max": [
                1.0,
                1.0,
                1.0
            ]
        },
        {
            "bufferView": 9,
            "byteOffset": 0,
            "componentType": 5125,
            "count": 660,
            "type": "SCALAR",
            "min": [
                0
            ],
            "max": [
                323
            ]
        },
        {
            "bufferView": 10,
            "byteOffset": 0,
            "componentType": 5126,
            "count": 324,
            "type": "VEC3",
            "min": [
                -0.04899999871850014,
                -0.009999999776482582,
                -0.014999999664723873
            ],
            "max": [
                0.04899999871850014,
                0.009999999776482582,
                0.0
            ]
        },
        {
            "bufferView": 11,
            "byteOffset": 0,
            "componentType": 5126,
            "count": 324,
            "type": "VEC3",
            "min": [
                -1.0,
                -1.0,
                -1.0
            ],
            "max": [
                1.0,
                1.0,
                1.0
            ]
        }
    ],
    "materials": [
        {
            "name": "defaultplastic",
            "pbrMetallicRoughness": {
                "baseColorFactor": [
                    0.5989418101001601,
                    0.6455552910764322,
                    0.8591735777059335,
                    1.0
                ],
                "metallicFactor": 0.0,
                "roughnessFactor": 0.16999999880790712
            }
        },
        {
            "name": "mattesteel",
            "pbrMetallicRoughness": {
                "baseColorFactor": [
                    1.0,
                    1.0,
                    1.0,
                    1.0
                ],
                "metallicFactor": 1.0,
                "roughnessFactor": 0.5
            }
        }
    ],
    "bufferViews": [
        {
            "buffer": 0,
            "byteOffset": 0,
            "byteLength": 5952,
            "target": 34963
        },
        {
            "buffer": 0,
            "byteOffset": 5952,
            "byteLength": 8880,
            "byteStride": 12,
            "target": 34962
        },
        {
            "buffer": 0,
            "byteOffset": 14832,
            "byteLength": 8880,
            "byteStride": 12,
            "target": 34962
        },
        {
            "buffer": 1,
            "byteOffset": 0,
            "byteLength": 11856,
            "target": 34963
        },
        {
            "buffer": 1,
            "byteOffset": 11856,
            "byteLength": 16416,
            "byteStride": 12,
            "target": 34962
        },
        {
            "buffer": 1,
            "byteOffset": 28272,
            "byteLength": 16416,
            "byteStride": 12,
            "target": 34962
        },
        {
            "buffer": 2,
            "byteOffset": 0,
            "byteLength": 2640,
            "target": 34963
        },
        {
            "buffer": 2,
            "byteOffset": 2640,
            "byteLength": 3888,
            "byteStride": 12,
            "target": 34962
        },
        {
            "buffer": 2,
            "byteOffset": 6528,
            "byteLength": 3888,
            "byteStride": 12,
            "target": 34962
        },
        {
            "buffer": 3,
            "byteOffset": 0,
            "byteLength": 2640,
            "target": 34963
        },
        {
            "buffer": 3,
            "byteOffset": 2640,
            "byteLength": 3888,
            "byteStride": 12,
            "target": 34962
        },
        {
            "buffer": 3,
            "byteOffset": 6528,
            "byteLength": 3888,
            "byteStride": 12,
            "target": 34962
        }
    ],
    "buffers": [
        {
            "uri": "0-1-GN-0201_JIECHANG-1.bin",
            "byteLength": 23712
        },
        {
            "uri": "1-2-VERTICAL DUCT BODY BEND AND DEVELOP_JIECHANG-1.bin",
            "byteLength": 44688
        },
        {
            "uri": "1-3-SW-OF-LN-0170-1.bin",
            "byteLength": 10416
        },
        {
            "uri": "1-4-SW-OF-LN-0170-2.bin",
            "byteLength": 10416
        }
    ]
}
